<?xml version="1.0" encoding="UTF-8"?>
<svg xmlns="http://www.w3.org/2000/svg" id="Line_stroke_cut_Ex" data-name="Line stroke cut Ex" width="512" height="512" viewBox="0 0 512 512"><g><path d="M296,448.208V344a8,8,0,0,0-3.35-6.51l-56-40A8,8,0,0,0,232,296h-.052l-40,.257a8,8,0,0,0-7.948,8V436.831l-48-18V368a8,8,0,0,0-8-8H32V312h96a8,8,0,0,0,8-8V232a8,8,0,0,0-8-8H32V189.494l18.207-7-5.744-14.934-23.335,8.975A8,8,0,0,0,16,184V400H32V376h88v42.436l-88,41.01V416H16v56a8,8,0,0,0,11.379,7.251l99.956-46.581,124.856,46.821a8,8,0,0,0,5.6.007l64.939-24.164-5.58-15ZM120,240v56H32V240ZM255.011,463.46,200,442.831V312.206l29.459-.189L280,348.117V454.162Z"/><path d="M480,288H464v16h16v48H456v16h24v84.352l-30.728-11.819-5.744,14.934,41.6,16A8,8,0,0,0,496,464V224H480Z"/><path d="M490.872,176.533l-104-40a8,8,0,0,0-5.258-.169L256,175.619l-48.814-15.255-4.772,15.272,10.108,3.159-27.178,40.767A8,8,0,0,0,184,224v24a8,8,0,0,0,8,8h80a8,8,0,0,0,7.428-5.029l30.131-75.327,54.132-16.916L344.282,229.9l15.436,4.21,22.1-81.042,1.908-.6L480,189.5V208h16V184A8,8,0,0,0,490.872,176.533ZM266.584,240H200V226.422l28.436-42.654,25.178,7.868a8.007,8.007,0,0,0,4.772,0l31.478-9.837Z"/><path d="M85.251,184.324C96.8,189.274,111.983,192,128,192s31.2-2.726,42.749-7.676C189.239,176.4,192,165.683,192,160s-2.761-16.4-21.251-24.324c-9.606-4.117-21.727-6.695-34.749-7.447V112h78a18.021,18.021,0,0,0,18-18V40a8,8,0,0,0-8-8H138a18.021,18.021,0,0,0-18,18v78.229c-13.022.752-25.143,3.33-34.749,7.447C66.761,143.6,64,154.317,64,160S66.761,176.4,85.251,184.324ZM136,50a2,2,0,0,1,2-2h78V94a2,2,0,0,1-2,2H136Zm-16,94.257V160h16V144.257c25.007,1.629,40,10.627,40,15.743,0,5.641-18.224,16-48,16s-48-10.359-48-16C80,154.884,94.993,145.886,120,144.257Z"/><path d="M414.985,395.711c2.382-2.747,4.82-5.66,7.262-8.713C444.644,359,456,333.769,456,312a72,72,0,0,0-144,0c0,21.769,11.356,47,33.753,75,2.442,3.053,4.88,5.966,7.262,8.713C332.57,401.029,320,411.489,320,424c0,5.683,2.761,16.4,21.251,24.324C352.8,453.274,367.983,456,384,456s31.2-2.726,42.749-7.676C445.239,440.4,448,429.683,448,424,448,411.489,435.43,401.029,414.985,395.711ZM328,312a56,56,0,0,1,112,0c0,17.74-10.4,40.15-30.091,64.807A297.657,297.657,0,0,1,384,405.091,297.289,297.289,0,0,1,358.247,377C338.459,352.268,328,329.791,328,312Zm56,128c-29.776,0-48-10.359-48-16,0-4.2,10.511-11.508,29.627-14.583,7.447,7.631,12.724,12.27,13.105,12.6a8,8,0,0,0,10.536,0c.381-.334,5.658-4.973,13.105-12.6C421.489,412.492,432,419.8,432,424,432,429.641,413.776,440,384,440Z"/><path d="M384,344a32,32,0,1,0-32-32A32.036,32.036,0,0,0,384,344Zm0-48a16,16,0,1,1-16,16A16.019,16.019,0,0,1,384,296Z"/></g></svg>
