<svg id="Capa_1" enable-background="new 0 0 512 512" height="512" viewBox="0 0 512 512" width="512" xmlns="http://www.w3.org/2000/svg"><g><g><path d="m289.133 331.334-15.124.001-35.36-14.147v-18.411c22.923-14.823 38.734-39.738 41.102-68.408h9.381c13.271 0 24.066-10.797 24.066-24.067v-33.134c0-13.27-10.796-24.066-24.066-24.066h-9.067v-17.352c0-25.314-14.449-47.304-35.523-58.198 1.575-5.275 2.39-10.747 2.39-16.352 0-31.54-25.66-57.2-57.2-57.2-9.165 0-18.283 2.223-26.366 6.428-3.675 1.911-5.104 6.439-3.193 10.114 1.912 3.675 6.441 5.104 10.115 3.192 6.04-3.141 12.582-4.734 19.445-4.734 23.269 0 42.2 18.931 42.2 42.2 0 3.771-.488 7.46-1.452 11.028-5.092-1.275-10.416-1.962-15.898-1.962h-49.7c-5.482 0-10.806.687-15.898 1.962-.964-3.568-1.452-7.257-1.452-11.028 0-6.844 1.585-13.368 4.709-19.395 1.907-3.677.472-8.203-3.206-10.11s-8.204-.472-10.111 3.206c-4.182 8.064-6.393 17.158-6.393 26.299 0 5.605.815 11.076 2.39 16.352-21.075 10.894-35.523 32.883-35.523 58.198v17.35h-9.067c-13.271 0-24.067 10.797-24.067 24.067v33.134c0 13.271 10.796 24.066 24.067 24.066h9.382c2.368 28.67 18.178 53.584 41.1 68.408v18.412l-35.361 14.147-15.123.002c-40.673 0-73.763 33.09-73.763 73.763v91.117c0 8.703 7.08 15.783 15.784 15.783h9.683c4.142 0 7.5-3.357 7.5-7.5s-3.358-7.5-7.5-7.5h-9.683c-.432 0-.784-.352-.784-.783v-91.116c0-32.402 26.361-58.763 58.764-58.763l11.489-.001 6.861 17.151-21.844 47.788c-3.552 7.772-.348 16.854 7.296 20.678l11.161 5.58c.141.07.433.217.433.701s-.293.631-.433.701l-8.037 4.017c-4.525 2.263-7.71 6.595-8.521 11.588-.811 4.994.841 10.112 4.419 13.69l28.77 28.77h-49.892c-4.142 0-7.5 3.357-7.5 7.5s3.358 7.5 7.5 7.5h275.082c8.703 0 15.783-7.08 15.783-15.783l-.002-91.119c0-40.674-33.09-73.764-73.763-73.764zm-21.67 121.018 8.036 4.017c.089.045.358.18.423.575.064.396-.149.61-.22.68l-39.377 39.376h-13.552l6.477-73.415c1.986.866 4.113 1.317 6.262 1.317 1.572 0 3.155-.236 4.7-.716 4.563-1.417 8.198-4.774 9.972-9.211l12.9-32.248 15.9 34.783c.177.386.018.837-.361 1.026l-11.162 5.58c-5.382 2.69-8.725 8.101-8.725 14.117s3.344 11.427 8.727 14.119zm-31.204-42.949c-.034.086-.139.347-.495.457-.355.113-.59-.044-.667-.096l-8.064-5.376c-.018-.012-.035-.023-.053-.035l-27.028-18.018 34.234-54.778 28.631 11.455zm61.939-236.235v33.134c0 5-4.067 9.067-9.066 9.067h-9.067l.001-51.268h9.067c4.998.001 9.065 4.068 9.065 9.067zm-133.315-91.901h49.7c27.836 0 50.483 22.646 50.483 50.483v16.228c-10.486-3.215-18.133-12.986-18.133-24.511v-16.567c0-4.143-3.358-7.5-7.5-7.5s-7.5 3.357-7.5 7.5c0 23.269-18.931 42.199-42.2 42.199h-49.7c-9.712 0-18.635 3.429-25.633 9.134v-26.484c-.001-27.836 22.646-50.482 50.483-50.482zm-83.618 125.034v-33.134c0-5 4.067-9.067 9.067-9.067h9.068l.001 51.268h-9.068c-5-.001-9.068-4.068-9.068-9.067zm33.135 16.567v-33.159c.013-14.124 11.507-25.609 25.633-25.609h49.7c18.881 0 35.647-9.2 46.07-23.347 5.479 11.607 16.294 20.211 29.263 22.642l-.001 59.474c0 41.539-33.794 75.333-75.332 75.333-41.539-.001-75.333-33.795-75.333-75.334zm75.333 90.333c11.99 0 23.438-2.354 33.916-6.614v13.527l-33.917 54.272-33.918-54.272v-13.527c10.479 4.26 21.928 6.614 33.919 6.614zm-44.455 18.357 34.234 54.778-27.052 18.033c-.016.01-.031.021-.047.031l-8.047 5.365c-.077.051-.311.208-.667.096-.356-.11-.46-.371-.495-.456l-26.558-66.392zm-41.516 126.066c-.07-.07-.284-.284-.219-.681.064-.395.334-.53.422-.575l8.037-4.018c5.382-2.69 8.725-8.101 8.725-14.117s-3.343-11.427-8.725-14.117l-11.16-5.58c-.38-.189-.539-.641-.363-1.026l15.899-34.781 12.899 32.247c1.774 4.436 5.409 7.793 9.972 9.21 1.544.48 3.127.716 4.7.716 2.165 0 4.308-.458 6.307-1.336l6.75 73.435h-13.867zm68.308 39.376-7.594-82.614 25.255-16.835 25.272 16.846-7.287 82.603zm175.044 0h-89.574l28.77-28.77c3.577-3.578 5.23-8.695 4.419-13.69-.811-4.994-3.996-9.326-8.521-11.59l-8.036-4.017c-.141-.07-.434-.217-.434-.701s.293-.631.433-.701l11.162-5.58c7.645-3.823 10.849-12.906 7.296-20.679l-21.845-47.789 6.861-17.15 11.49-.001c32.402 0 58.763 26.361 58.763 58.764l.002 91.119c-.002.433-.354.785-.786.785z"/><path d="m164.097 206.299v-8.282c0-4.143-3.358-7.5-7.5-7.5s-7.5 3.357-7.5 7.5v8.282c0 4.143 3.358 7.5 7.5 7.5s7.5-3.358 7.5-7.5z"/><path d="m222.865 213.799c4.142 0 7.5-3.357 7.5-7.5v-8.282c0-4.143-3.358-7.5-7.5-7.5s-7.5 3.357-7.5 7.5v8.282c0 4.142 3.358 7.5 7.5 7.5z"/><path d="m217.426 253.725c2.075-3.585.851-8.173-2.734-10.248-3.583-2.073-8.173-.852-10.248 2.734-3.098 5.353-8.858 8.678-15.032 8.678-6.175 0-11.936-3.326-15.033-8.68-2.075-3.586-6.664-4.808-10.247-2.736-3.586 2.075-4.81 6.663-2.736 10.248 5.77 9.973 16.505 16.168 28.017 16.168 11.507 0 22.242-6.194 28.013-16.164z"/><path d="m405.099 82.833c-13.27 0-24.066 10.797-24.066 24.067s10.796 24.066 24.066 24.066c13.271 0 24.067-10.796 24.067-24.066s-10.797-24.067-24.067-24.067zm0 33.134c-4.999 0-9.066-4.067-9.066-9.066 0-5 4.067-9.067 9.066-9.067 5 0 9.067 4.067 9.067 9.067 0 4.998-4.067 9.066-9.067 9.066z"/><path d="m483.478 81.488-10.103-2.525c-.08-.196-.16-.393-.242-.587l5.358-8.93c3.732-6.222 2.756-14.15-2.374-19.281l-14.283-14.283c-5.131-5.129-13.061-6.103-19.28-2.373l-8.93 5.358c-.194-.082-.391-.162-.587-.242l-2.525-10.104c-1.76-7.039-8.057-11.955-15.312-11.955h-20.2c-7.256 0-13.553 4.916-15.312 11.955l-2.525 10.104c-.196.08-.393.16-.588.242l-8.93-5.358c-6.221-3.732-14.15-2.754-19.28 2.374l-14.282 14.282c-5.13 5.131-6.106 13.06-2.374 19.281l5.358 8.93c-.082.194-.162.391-.242.587l-10.104 2.525c-7.039 1.76-11.955 8.057-11.955 15.312v20.198c0 7.256 4.916 13.553 11.955 15.312l10.104 2.525c.08.196.16.393.242.588l-5.358 8.93c-3.732 6.222-2.756 14.15 2.374 19.28l14.282 14.282c5.131 5.129 13.057 6.106 19.282 2.373l8.928-5.357c.195.082.392.162.588.242l2.525 10.104c1.76 7.039 8.057 11.955 15.312 11.955h20.198c7.256 0 13.553-4.916 15.312-11.955l2.525-10.104c.196-.08.393-.16.587-.242l8.93 5.358c6.221 3.732 14.148 2.757 19.281-2.374l14.282-14.282c5.13-5.13 6.105-13.059 2.373-19.282l-5.357-8.928c.082-.195.162-.392.242-.588l10.103-2.525c7.039-1.76 11.955-8.057 11.955-15.312v-20.197c.002-7.256-4.914-13.553-11.953-15.313zm-3.045 35.511c0 .36-.244.673-.594.76l-13.917 3.479c-2.46.615-4.442 2.432-5.271 4.829-.79 2.29-1.702 4.499-2.71 6.564-1.112 2.281-.996 4.971.311 7.147l7.375 12.29c.186.31.137.704-.118.958l-14.281 14.281c-.253.256-.648.305-.958.12l-12.293-7.377c-2.177-1.306-4.867-1.422-7.147-.309-2.063 1.007-4.271 1.918-6.562 2.709-2.397.828-4.214 2.811-4.829 5.271l-3.479 13.917c-.087.35-.399.594-.76.594h-20.2c-.36 0-.673-.244-.76-.594l-3.479-13.917c-.615-2.46-2.432-4.442-4.829-5.271-2.29-.79-4.499-1.702-6.564-2.71-1.04-.507-2.165-.759-3.288-.759-1.339 0-2.675.358-3.859 1.069l-12.29 7.375c-.311.185-.704.137-.958-.118l-14.282-14.282c-.255-.254-.304-.648-.119-.956l7.376-12.292c1.307-2.177 1.423-4.866.31-7.147-1.008-2.065-1.92-4.274-2.71-6.564-.828-2.397-2.811-4.214-5.271-4.829l-13.917-3.479c-.35-.087-.594-.399-.594-.76v-20.197c0-.36.244-.673.594-.76l13.917-3.479c2.46-.615 4.442-2.432 5.271-4.829.791-2.291 1.702-4.499 2.709-6.562 1.113-2.281.997-4.971-.309-7.147l-7.376-12.293c-.186-.309-.137-.703.118-.957l14.282-14.282c.255-.255.649-.301.956-.119l12.292 7.376c2.178 1.307 4.867 1.422 7.147.31 2.065-1.008 4.274-1.92 6.564-2.71 2.397-.828 4.214-2.811 4.829-5.271l3.479-13.917c.087-.35.399-.594.76-.594h20.198c.36 0 .673.244.76.594l3.479 13.917c.615 2.46 2.432 4.442 4.829 5.271 2.291.791 4.499 1.702 6.562 2.709 2.282 1.112 4.971.997 7.147-.309l12.293-7.375c.307-.186.704-.137.957.118l14.282 14.282c.255.254.304.648.118.957l-7.375 12.293c-1.307 2.177-1.423 4.866-.31 7.147 1.007 2.063 1.918 4.271 2.709 6.562.828 2.397 2.811 4.214 5.271 4.829l13.917 3.479c.35.087.594.399.594.76v20.198z"/></g></g></svg>